<?xml version="1.0" encoding="UTF-8"?><svg id="Layer_1" xmlns="http://www.w3.org/2000/svg" viewBox="0 0 136 96.05"><defs><style>.cls-1{fill:#fff;fill-rule:evenodd;}.cls-2{fill:#0b9cd9;}</style></defs><path class="cls-2" d="m56.61,10.48c4.35-4.64,10.49-7.46,17.24-7.46,8.99,0,16.79,5.04,20.98,12.55,3.65-1.61,7.64-2.52,11.84-2.52,16.19,0,29.33,13.35,29.33,29.83s-13.14,29.83-29.33,29.83c-2,0-3.9-.2-5.8-.6-3.65,6.6-10.69,11.09-18.69,11.09-3.35,0-6.55-.81-9.39-2.17-3.75,8.82-12.39,15.02-22.48,15.02s-19.49-6.7-22.93-16.13c-1.5.3-3.05.5-4.65.5-12.59-.1-22.73-10.43-22.73-23.23,0-8.57,4.55-16.03,11.34-20.06-1.4-3.23-2.15-6.8-2.15-10.58C9.19,11.89,20.98,0,35.57,0c8.59,0,16.19,4.08,21.03,10.48Z"/><path class="cls-1" d="m100.4,39.03c.05.05.12.11.08.28-.05.2-.45,1.26-.65,1.66-.05.1-.15.2-.3.2,0,0-.45-.1-.85-.1-.3,0-.7.05-1.05.15-.35.1-.65.3-.95.6-.3.25-.55.66-.7,1.16-.15.45-.25,1.26-.25,2.07v6c0,.15-.1.25-.25.25h-2.05c-.15,0-.25-.1-.25-.25v-11.84c0-.15.1-.25.25-.25h2c.15,0,.25.1.25.25v.96c.3-.4.85-.81,1.35-1.01.5-.25,1.05-.4,2.05-.35.5,0,1.15.15,1.3.2,0,0,.01.01.02.02Zm-20.16-5.46c.3.05.55.1.8.2,0,0,.02.02.03.03.06.05.14.11.02.28l-.6,1.66c-.05.1-.1.2-.35.1-.02,0-.05,0-.1-.02-.06-.02-.16-.05-.3-.08-.09,0-.19-.01-.29-.02-.11-.01-.23-.03-.36-.03-.3,0-.6,0-.85.1-.25.05-.45.2-.65.4-.2.2-.45.5-.55.86-.25.86-.4,1.76-.4,1.81h2.5c.2,0,.25.1.25.25l-.3,1.66c-.05.25-.25.25-.25.25h-2.6l-1.8,10.13c-.2,1.06-.45,1.97-.7,2.67-.25.71-.55,1.26-1,1.76-.4.45-.9.81-1.45,1.01-.55.2-1.2.3-1.95.3-.35,0-.7,0-1.15-.1-.3-.05-.45-.1-.7-.2-.1,0-.15-.15-.1-.3.03-.08.16-.44.3-.81.14-.37.27-.73.3-.81.1-.25.3-.15.3-.15.05.02.09.03.14.05.09.03.18.07.31.1.1,0,.21.01.32.03.11.01.22.03.32.03.35,0,.7-.05.95-.15.3-.1.5-.3.7-.55.2-.25.4-.6.55-1.11.15-.5.3-1.16.45-1.97l1.75-9.93h-1.75c-.2,0-.25-.1-.25-.25l.3-1.66c.05-.25.25-.25.25-.25h1.8l.1-.55c.3-1.61.8-2.82,1.6-3.63s1.9-1.21,3.35-1.21c.4,0,.75.05,1.05.1Zm-34.67,17.69c.15,0,.25-.1.25-.25v-16.98c0-.15-.1-.25-.25-.25h-2.1c-.15,0-.25.1-.25.25v16.98c0,.15.1.25.25.25h2.1Zm-25.86-1.21h0s-.09-.11-.02-.26l.5-1.61c.05-.3.25-.2.35-.15.05.03.09.07.14.1.09.07.18.13.31.2,1.65,1.06,3.15,1.06,3.6,1.06,1.2,0,1.95-.66,1.95-1.51v-.05c0-.96-1.15-1.31-2.5-1.71l-.3-.1c-1.85-.5-3.8-1.26-3.8-3.63v-.05c0-2.22,1.8-3.78,4.35-3.78h.3c1.5,0,2.95.4,4,1.06.1.05.2.15.15.3-.02.08-.15.43-.27.78-.12.35-.25.71-.27.78-.1.25-.35.1-.35.1-.9-.5-2.35-.91-3.55-.91-1.1,0-1.8.55-1.8,1.36v.05c0,.91,1.2,1.31,2.6,1.76l.25.1c1.85.6,3.8,1.41,3.8,3.63v.05c0,2.37-1.75,3.88-4.55,3.88-1.35,0-2.65-.2-4.05-.96-.06-.03-.12-.06-.18-.09h0c-.22-.11-.42-.21-.62-.37,0-.01-.01-.03-.03-.05Zm40.87,0s-.09-.11-.02-.26l.5-1.61c.05-.25.3-.2.35-.15.05.03.09.07.14.1.09.07.18.13.31.2,1.65,1.06,3.15,1.06,3.6,1.06,1.2,0,1.95-.66,1.95-1.51v-.05c0-.96-1.15-1.31-2.5-1.71l-.3-.1c-1.85-.5-3.8-1.26-3.8-3.63v-.05c0-2.22,1.8-3.78,4.35-3.78h.3c1.5,0,2.95.4,4,1.06.1.05.2.15.15.3-.03.08-.15.43-.27.78h0s0,0,0,0h0c-.12.35-.25.7-.27.78-.1.25-.35.1-.35.1-.9-.5-2.35-.91-3.55-.91-1.1,0-1.8.55-1.8,1.36v.05c0,.91,1.2,1.31,2.6,1.76l.25.1c1.85.6,3.8,1.41,3.8,3.63v.05c0,2.37-1.75,3.88-4.55,3.88-1.35,0-2.65-.2-4.05-.96-.06-.03-.12-.06-.18-.09-.22-.11-.42-.21-.62-.37,0-.01-.01-.03-.03-.05Zm29.11-9.53c.45.55.8,1.26,1.05,2.02.25.81.35,1.61.35,2.52s-.1,1.76-.35,2.52c-.2.76-.6,1.46-1.05,2.02-.5.55-1.1,1.06-1.8,1.36-.7.35-1.55.5-2.5.5s-1.8-.2-2.5-.5c-.7-.3-1.3-.81-1.8-1.36-.45-.55-.8-1.26-1.05-2.02-.25-.76-.35-1.61-.35-2.52s.1-1.76.35-2.52c.2-.76.6-1.46,1.05-2.02.5-.55,1.1-1.01,1.8-1.36.7-.35,1.55-.5,2.5-.5s1.8.15,2.5.5c.7.3,1.3.81,1.8,1.36Zm-2.05,7.71c.5-.76.75-1.81.75-3.17s-.25-2.42-.75-3.17c-.45-.76-1.2-1.11-2.25-1.11s-1.75.35-2.25,1.11c-.5.76-.75,1.81-.75,3.17s.25,2.42.75,3.17c.5.76,1.2,1.11,2.25,1.11s1.75-.35,2.25-1.11Zm21.93.65s.2-.1.3.15l.45,1.56c.05.2-.1.3-.1.3-.9.35-2.1.6-3.3.6-2,0-3.55-.6-4.6-1.76-1.05-1.16-1.55-2.72-1.55-4.69,0-.91.15-1.76.4-2.52.25-.76.65-1.46,1.15-2.02.5-.55,1.15-1.01,1.9-1.36.75-.35,1.6-.5,2.6-.5.65,0,1.25,0,1.75.1.55.1,1.25.3,1.55.4.05,0,.2.05.15.25-.18.59-.32.97-.49,1.45l-.06.17c-.05.25-.25.15-.25.15-.75-.25-1.5-.35-2.45-.35-1.15,0-2.05.4-2.6,1.16-.6.76-.9,1.76-.9,3.07,0,1.46.35,2.57,1,3.23.65.66,1.5,1.01,2.65,1.01.5,0,.9-.05,1.3-.1.4-.05.75-.15,1.1-.3Zm11.19-8.67c.3.35.8,1.11,1,1.86.39,1.42.32,2.68.3,3.14h0c0,.13-.01.2,0,.19-.05.2-.25.2-.25.2h-7.89c.05,1.16.3,2.02.9,2.62.55.6,1.5.96,2.7.96,1.69,0,2.51-.32,3.05-.53.07-.03.13-.05.19-.07,0,0,.2-.05.3.15l.5,1.46c.1.25.05.35-.05.4-.45.3-1.65.81-3.95.81-1.1,0-2.05-.15-2.85-.45-.8-.3-1.5-.76-2-1.31-.55-.55-.9-1.26-1.15-2.02-.25-.76-.35-1.61-.35-2.52s.1-1.71.35-2.52c.2-.81.55-1.46,1.05-2.07.45-.6,1.05-1.06,1.8-1.41.7-.35,1.6-.5,2.6-.5.85,0,1.6.15,2.25.45.5.2,1,.6,1.5,1.16Zm-6.19,1.66c-.35.5-.55,1.11-.65,1.86h5.6c-.05-.71-.15-1.36-.5-1.86-.5-.76-1.15-1.16-2.2-1.16s-1.75.4-2.25,1.16Zm-56.91-1.66c.3.35.8,1.11,1,1.86.39,1.42.32,2.68.3,3.14h0c0,.13-.01.2,0,.19-.05.2-.25.2-.25.2h-7.89c.05,1.16.3,2.02.9,2.62.55.6,1.5.96,2.7.96,1.69,0,2.51-.32,3.05-.53.07-.03.13-.05.2-.07,0,0,.2-.05.3.15l.5,1.46c.1.25.05.35-.05.4-.45.3-1.65.81-3.95.81-1.1,0-2.05-.15-2.85-.45-.8-.3-1.5-.76-2-1.31-.55-.55-.9-1.26-1.15-2.02-.25-.76-.35-1.61-.35-2.52s.1-1.71.35-2.52c.2-.81.55-1.46,1.05-2.07.45-.6,1.05-1.06,1.8-1.41.7-.35,1.6-.5,2.6-.5.85,0,1.6.15,2.25.45.5.2,1,.6,1.5,1.16Zm-6.2,1.66c-.35.5-.55,1.11-.65,1.86h5.6c-.05-.71-.2-1.36-.5-1.86-.5-.76-1.15-1.16-2.2-1.16s-1.75.4-2.25,1.16Zm-15.01,1.49h0c-.23-.01-.5-.03-.78-.03-.7,0-1.35.1-1.95.25-.6.15-1.15.4-1.65.76-.5.35-.85.81-1.15,1.31-.3.5-.4,1.16-.4,1.81,0,.71.1,1.31.35,1.81.25.5.6.91,1.05,1.26.45.3,1,.55,1.6.71.6.15,1.3.2,2.1.2s1.6-.05,2.4-.2c.26-.05.54-.1.82-.16h0c.51-.09.99-.18,1.18-.25.25-.05.55-.15.55-.15.2-.05.2-.25.2-.25v-7.26c0-1.61-.4-2.77-1.25-3.53-.85-.71-2.05-1.11-3.6-1.11-.6,0-1.55.1-2.1.2,0,0-1.7.35-2.45.91,0,0-.15.1-.05.3l.55,1.51c.05.2.25.15.25.15,0,0,.05,0,.15-.05,1.5-.81,3.45-.81,3.45-.81.85,0,1.5.15,1.95.5.45.35.65.86.65,1.91v.35c-.8-.1-1.4-.15-1.4-.15-.13,0-.29,0-.47-.02Zm-2.68,5.61c-.3-.25-.35-.3-.45-.45-.15-.25-.25-.6-.25-1.06,0-.71.25-1.21.7-1.56,0,0,.7-.6,2.3-.55,1.15,0,2.15.2,2.15.2v3.63s-1,.2-2.15.3c-1.6.05-2.3-.5-2.3-.5Z"/></svg>